<?xml version="1.0" encoding="iso-8859-1"?>
<!-- Uploaded to: SVG Repo, www.svgrepo.com, Generator: SVG Repo Mixer Tools -->
<svg height="800px" width="800px" version="1.1" id="Layer_1" xmlns="http://www.w3.org/2000/svg" xmlns:xlink="http://www.w3.org/1999/xlink" 
	 viewBox="0 0 512 512" xml:space="preserve">
<path style="fill:#E2E2E2;" d="M256,512c141.392,0,256-114.608,256-256S397.392,0,256,0S0,114.608,0,256S114.608,512,256,512z"/>
<path style="fill:#FFFFFF;" d="M85.12,287.776l15.52,11.744l-8.288,17.616l-21.456,45.568l54.912,6.304l20.032,2.304l1.184,20.128
	l3.008,51.152l50.16-23.76l17.664-8.368l11.776,15.616l33.52,44.448l29.312-44.032l11.616-17.456l18.864,9.168l43.904,21.344
	l3.968-54.224l1.584-21.712l21.76-0.528l52.304-1.28l-18.32-41.584l-7.152-16.24l13.44-11.6l40.192-34.688l-45.44-36.816l-16-12.96
	l10.368-17.776l23.728-40.656l-52.96-4.208l-20.368-1.616l-1.664-20.368l-4.464-54.832l-45.776,21.84l-17.456,8.32l-11.84-15.28
	L259.44,40.32l-30.816,43.584l-12.16,17.2l-18.64-9.824l-46.016-24.288l-2.56,54.032l-1.04,21.776l-21.792,1.056l-56.816,2.72
	l21.92,55.472l7.392,18.704l-17.12,10.544L42.48,255.504L85.12,287.776z M271.12,148.048l-4.4,151.296h-21.44l-4.4-151.296
	C240.88,148.048,271.12,148.048,271.12,148.048z M256,324.88c11.344,0,18.592,8.192,18.592,19.536
	c0,11.024-7.248,19.552-18.592,19.552c-11.024,0-18.592-8.512-18.592-19.552C237.408,333.056,245.28,324.88,256,324.88z"/>
<path d="M70.64,306.912l-35.68,75.824l88.128,10.112l5.104,86.656l82.304-38.992L264.368,512l48.064-72.208l75.744,36.832
	l6.56-89.552l88.128-2.16l-32.768-74.384L512,257.088l-67.728-54.88l42.976-73.664l-91.04-7.216l-7.28-89.552l-77.2,36.832
	L258.544,0l-49.52,70.048L129.632,28.16l-4.368,91.712l-90.304,4.336l34.224,86.656L0,253.472L70.64,306.912z M98.896,220.752
	l-7.392-18.704L69.6,146.576l56.816-2.72l21.792-1.04l1.04-21.792l2.576-54.016L197.84,91.28l18.64,9.824l12.16-17.2l30.816-43.584
	l33.312,42.976l11.84,15.28l17.456-8.32l45.776-21.84l4.464,54.832l1.664,20.368l20.368,1.616l52.96,4.208l-23.728,40.656
	L413.2,207.872l16,12.96l45.44,36.816l-40.192,34.688l-13.44,11.6l7.152,16.24l18.32,41.584l-52.304,1.28l-21.76,0.528
	l-1.584,21.712l-3.968,54.224L322.96,418.16l-18.864-9.168l-11.616,17.456l-29.312,44.032l-33.52-44.448l-11.776-15.616
	l-17.664,8.368l-50.16,23.76l-3.008-51.104l-1.184-20.128l-20.032-2.304l-54.912-6.304l21.456-45.568l8.288-17.616l-15.52-11.744
	L42.48,255.504l39.312-24.208L98.896,220.752z"/>
<g>
	<polygon style="fill:#ED1C24;" points="266.72,299.344 271.12,148.048 240.88,148.048 245.28,299.344 	"/>
	<path style="fill:#ED1C24;" d="M256,363.952c11.344,0,18.592-8.512,18.592-19.552c0-11.344-7.248-19.536-18.592-19.536
		c-10.72,0-18.592,8.192-18.592,19.536C237.408,355.44,244.976,363.952,256,363.952z"/>
</g>
</svg>