<?xml version="1.0" encoding="iso-8859-1"?>
<!-- Uploaded to: SVG Repo, www.svgrepo.com, Generator: SVG Repo Mixer Tools -->
<svg height="800px" width="800px" version="1.1" id="Layer_1" xmlns="http://www.w3.org/2000/svg" xmlns:xlink="http://www.w3.org/1999/xlink" 
	 viewBox="0 0 512 512" xml:space="preserve">
<path style="fill:#F53000;" d="M512,401.805c0,8.501-6.892,15.393-15.393,15.393H15.393C6.892,417.199,0,410.307,0,401.805V110.195
	c0-8.501,6.892-15.393,15.393-15.393h481.213c8.501,0,15.393,6.892,15.393,15.393L512,401.805L512,401.805z"/>
<path style="fill:#2D2E30;" d="M512,401.805V110.195c0-8.501-6.892-15.393-15.393-15.393H317.024
	c-0.205,2.869,0.781,5.809,2.975,8.004l17.65,17.65c4.014,4.014,4.014,10.523,0,14.536L320,152.639
	c-4.014,4.014-4.014,10.523,0,14.536l17.65,17.65c4.014,4.014,4.014,10.523,0,14.536L320,217.01c-4.014,4.014-4.014,10.523,0,14.536
	l17.65,17.65c4.014,4.014,4.014,10.523,0,14.536L320,281.381c-4.014,4.014-4.014,10.523,0,14.536l17.65,17.65
	c4.014,4.014,4.014,10.523,0,14.536L320,345.752c-4.014,4.014-4.014,10.523,0,14.536l17.65,17.65c4.014,4.014,4.014,10.523,0,14.536
	L320,410.123c-1.958,1.958-2.954,4.51-3.002,7.076h179.608C505.108,417.199,512,410.307,512,401.805z"/>
<path style="fill:#FFFFFF;" d="M102.579,237.313v-27.802c0-19.384,12.727-26.431,29.369-26.431c16.445,0,29.368,7.049,29.368,26.431
	v27.802c0,19.384-12.922,26.431-29.368,26.431C115.305,263.745,102.579,256.697,102.579,237.313z M141.736,209.512
	c0-6.461-3.72-9.397-9.789-9.397c-6.069,0-9.594,2.937-9.594,9.397v27.802c0,6.461,3.525,9.397,9.594,9.397s9.789-2.936,9.789-9.397
	V209.512z M222.01,185.43c0,1.175-0.196,2.546-0.782,3.72l-68.919,141.163c-1.37,2.937-5.091,4.895-8.811,4.895
	c-6.656,0-10.965-5.483-10.965-10.377c0-1.174,0.392-2.546,0.979-3.72l68.722-141.164c1.566-3.328,4.699-4.894,8.223-4.894
	C215.94,175.053,222.01,179.164,222.01,185.43z M192.445,300.357v-27.802c0-19.384,12.727-26.431,29.368-26.431
	c16.446,0,29.369,7.049,29.369,26.431v27.802c0,19.384-12.922,26.431-29.369,26.431
	C205.172,326.788,192.445,319.741,192.445,300.357z M231.603,272.555c0-6.461-3.72-9.397-9.789-9.397s-9.593,2.936-9.593,9.397
	v27.802c0,6.461,3.524,9.397,9.593,9.397s9.789-2.937,9.789-9.397V272.555z"/>
<path style="fill:#FAE246;" d="M465.963,382.354H46.924c-9.22,0-16.696-7.475-16.696-16.696V141.948
	c0-9.22,7.475-16.696,16.696-16.696h419.04c9.22,0,16.696,7.475,16.696,16.696v223.711
	C482.659,374.88,475.184,382.354,465.963,382.354z M63.619,348.962h385.648V158.643H63.619V348.962z"/>
<path style="fill:#E3C129;" d="M465.963,125.252H340.348c0.834,3.379-0.058,7.097-2.699,9.738L320,152.639
	c-1.685,1.685-2.652,3.81-2.923,6.005h132.192v190.319H317.83c-1.611,3.751-0.893,8.263,2.17,11.325l17.65,17.65
	c1.274,1.274,2.14,2.799,2.606,4.417h125.709c9.22,0,16.696-7.475,16.696-16.696V141.949
	C482.659,132.727,475.184,125.252,465.963,125.252z"/>
</svg>